<svg width="769" height="369" viewBox="0 0 769 369" fill="none" xmlns="http://www.w3.org/2000/svg">
<g filter="url(#filter0_dd_53_23)">
<path d="M128.422 220.545V130.545H143.593V141.369H144.488C145.283 139.778 146.405 138.088 147.854 136.298C149.303 134.48 151.263 132.932 153.735 131.653C156.206 130.347 159.36 129.693 163.195 129.693C168.252 129.693 172.811 130.986 176.874 133.571C180.965 136.128 184.203 139.92 186.59 144.949C189.005 149.949 190.212 156.085 190.212 163.358C190.212 170.545 189.033 176.653 186.675 181.682C184.317 186.71 181.107 190.545 177.044 193.188C172.982 195.83 168.38 197.151 163.238 197.151C159.488 197.151 156.377 196.526 153.905 195.276C151.434 194.026 149.445 192.52 147.939 190.759C146.462 188.969 145.311 187.278 144.488 185.688H143.848V220.545H128.422ZM143.55 163.273C143.55 167.506 144.147 171.213 145.34 174.395C146.561 177.577 148.309 180.062 150.581 181.852C152.882 183.614 155.667 184.494 158.934 184.494C162.343 184.494 165.198 183.585 167.499 181.767C169.8 179.92 171.533 177.406 172.698 174.224C173.891 171.014 174.488 167.364 174.488 163.273C174.488 159.21 173.905 155.602 172.74 152.449C171.576 149.295 169.843 146.824 167.542 145.034C165.24 143.244 162.371 142.349 158.934 142.349C155.638 142.349 152.84 143.216 150.539 144.949C148.238 146.682 146.49 149.111 145.297 152.236C144.132 155.361 143.55 159.04 143.55 163.273ZM203.422 196V130.545H218.38V141.455H219.061C220.255 137.676 222.3 134.764 225.198 132.719C228.124 130.645 231.462 129.608 235.212 129.608C236.064 129.608 237.016 129.651 238.067 129.736C239.147 129.793 240.042 129.892 240.752 130.034V144.224C240.098 143.997 239.061 143.798 237.641 143.628C236.249 143.429 234.9 143.33 233.593 143.33C230.78 143.33 228.252 143.94 226.007 145.162C223.792 146.355 222.044 148.017 220.766 150.148C219.488 152.278 218.848 154.736 218.848 157.52V196H203.422ZM276.856 197.278C270.464 197.278 264.924 195.872 260.237 193.06C255.549 190.247 251.913 186.312 249.328 181.256C246.771 176.199 245.493 170.29 245.493 163.528C245.493 156.767 246.771 150.844 249.328 145.759C251.913 140.673 255.549 136.724 260.237 133.912C264.924 131.099 270.464 129.693 276.856 129.693C283.248 129.693 288.788 131.099 293.475 133.912C298.163 136.724 301.785 140.673 304.342 145.759C306.927 150.844 308.22 156.767 308.22 163.528C308.22 170.29 306.927 176.199 304.342 181.256C301.785 186.312 298.163 190.247 293.475 193.06C288.788 195.872 283.248 197.278 276.856 197.278ZM276.941 184.92C280.407 184.92 283.305 183.969 285.635 182.065C287.964 180.134 289.697 177.548 290.833 174.31C291.998 171.071 292.581 167.463 292.581 163.486C292.581 159.48 291.998 155.858 290.833 152.619C289.697 149.352 287.964 146.753 285.635 144.821C283.305 142.889 280.407 141.923 276.941 141.923C273.39 141.923 270.436 142.889 268.078 144.821C265.748 146.753 264.001 149.352 262.836 152.619C261.7 155.858 261.132 159.48 261.132 163.486C261.132 167.463 261.7 171.071 262.836 174.31C264.001 177.548 265.748 180.134 268.078 182.065C270.436 183.969 273.39 184.92 276.941 184.92ZM321.313 196V130.545H336.057V141.668H336.824C338.188 137.918 340.446 134.991 343.6 132.889C346.753 130.759 350.517 129.693 354.892 129.693C359.324 129.693 363.06 130.773 366.1 132.932C369.168 135.062 371.327 137.974 372.577 141.668H373.259C374.708 138.031 377.151 135.134 380.588 132.974C384.054 130.787 388.159 129.693 392.904 129.693C398.926 129.693 403.841 131.597 407.648 135.403C411.455 139.21 413.358 144.764 413.358 152.065V196H397.89V154.452C397.89 150.389 396.81 147.42 394.651 145.545C392.492 143.642 389.85 142.69 386.725 142.69C383.003 142.69 380.091 143.855 377.989 146.185C375.915 148.486 374.878 151.483 374.878 155.176V196H359.75V153.812C359.75 150.432 358.728 147.733 356.682 145.716C354.665 143.699 352.023 142.69 348.756 142.69C346.54 142.69 344.523 143.259 342.705 144.395C340.887 145.503 339.438 147.08 338.358 149.125C337.279 151.142 336.739 153.5 336.739 156.199V196H321.313ZM429.008 220.545V130.545H444.179V141.369H445.074C445.869 139.778 446.991 138.088 448.44 136.298C449.889 134.48 451.849 132.932 454.321 131.653C456.792 130.347 459.946 129.693 463.781 129.693C468.838 129.693 473.397 130.986 477.46 133.571C481.551 136.128 484.789 139.92 487.176 144.949C489.591 149.949 490.798 156.085 490.798 163.358C490.798 170.545 489.619 176.653 487.261 181.682C484.903 186.71 481.693 190.545 477.63 193.188C473.568 195.83 468.966 197.151 463.824 197.151C460.074 197.151 456.963 196.526 454.491 195.276C452.02 194.026 450.031 192.52 448.525 190.759C447.048 188.969 445.897 187.278 445.074 185.688H444.434V220.545H429.008ZM444.136 163.273C444.136 167.506 444.733 171.213 445.926 174.395C447.147 177.577 448.895 180.062 451.167 181.852C453.468 183.614 456.252 184.494 459.52 184.494C462.929 184.494 465.784 183.585 468.085 181.767C470.386 179.92 472.119 177.406 473.284 174.224C474.477 171.014 475.074 167.364 475.074 163.273C475.074 159.21 474.491 155.602 473.326 152.449C472.162 149.295 470.429 146.824 468.127 145.034C465.826 143.244 462.957 142.349 459.52 142.349C456.224 142.349 453.426 143.216 451.125 144.949C448.824 146.682 447.076 149.111 445.883 152.236C444.718 155.361 444.136 159.04 444.136 163.273ZM536.693 130.545V142.477H499.065V130.545H536.693ZM508.355 114.864H523.781V176.312C523.781 178.386 524.093 179.977 524.718 181.085C525.372 182.165 526.224 182.903 527.275 183.301C528.326 183.699 529.491 183.898 530.77 183.898C531.735 183.898 532.616 183.827 533.412 183.685C534.235 183.543 534.86 183.415 535.287 183.301L537.886 195.361C537.062 195.645 535.883 195.957 534.349 196.298C532.843 196.639 530.997 196.838 528.809 196.895C524.946 197.009 521.466 196.426 518.369 195.148C515.272 193.841 512.815 191.824 510.997 189.097C509.207 186.369 508.326 182.96 508.355 178.869V114.864ZM566.426 108.727V196H551V108.727H566.426ZM591.877 220.545C589.775 220.545 587.829 220.375 586.039 220.034C584.278 219.722 582.872 219.352 581.821 218.926L585.4 206.909C587.645 207.563 589.647 207.875 591.409 207.847C593.17 207.818 594.718 207.264 596.054 206.185C597.417 205.134 598.568 203.372 599.505 200.901L600.826 197.364L577.091 130.545H593.454L608.539 179.977H609.221L624.349 130.545H640.755L614.548 203.926C613.326 207.392 611.707 210.361 609.69 212.832C607.673 215.332 605.201 217.236 602.275 218.543C599.377 219.878 595.912 220.545 591.877 220.545Z" fill="url(#paint0_linear_53_23)"/>
</g>
<defs>
<filter id="filter0_dd_53_23" x="0.422119" y="0.727295" width="768.333" height="367.818" filterUnits="userSpaceOnUse" color-interpolation-filters="sRGB">
<feFlood flood-opacity="0" result="BackgroundImageFix"/>
<feColorMatrix in="SourceAlpha" type="matrix" values="0 0 0 0 0 0 0 0 0 0 0 0 0 0 0 0 0 0 127 0" result="hardAlpha"/>
<feOffset dy="20"/>
<feGaussianBlur stdDeviation="64"/>
<feComposite in2="hardAlpha" operator="out"/>
<feColorMatrix type="matrix" values="0 0 0 0 0 0 0 0 0 0 0 0 0 0 0 0 0 0 0.25 0"/>
<feBlend mode="normal" in2="BackgroundImageFix" result="effect1_dropShadow_53_23"/>
<feColorMatrix in="SourceAlpha" type="matrix" values="0 0 0 0 0 0 0 0 0 0 0 0 0 0 0 0 0 0 127 0" result="hardAlpha"/>
<feOffset dy="4"/>
<feGaussianBlur stdDeviation="2"/>
<feComposite in2="hardAlpha" operator="out"/>
<feColorMatrix type="matrix" values="0 0 0 0 0 0 0 0 0 0 0 0 0 0 0 0 0 0 0.25 0"/>
<feBlend mode="normal" in2="effect1_dropShadow_53_23" result="effect2_dropShadow_53_23"/>
<feBlend mode="normal" in="SourceGraphic" in2="effect2_dropShadow_53_23" result="shape"/>
</filter>
<linearGradient id="paint0_linear_53_23" x1="382" y1="80" x2="382" y2="225" gradientUnits="userSpaceOnUse">
<stop stop-color="white"/>
<stop offset="1" stop-color="#D3D3D3"/>
</linearGradient>
</defs>
</svg>
